<svg xmlns="http://www.w3.org/2000/svg" viewBox="0 0 500 500"><g id="freepik--background-simple--inject-318"><path d="M158.8,453.87c102.4,34,219.14-38.88,278.91-116,39.71-51.24,61.54-114.83,50.28-170.61-8.26-40.88-37.39-83.42-88.29-92.19C343,65.31,289.35,114.71,231,105.44s-130.81,5.12-170.37,43.95S3.2,266.57,23.13,332.06c11.37,37.35,36,71.39,70.81,94.82,19.16,12.88,41,18.81,63.61,26.57Z" style="fill:#FF81AE"></path><path d="M158.8,453.87c102.4,34,219.14-38.88,278.91-116,39.71-51.24,61.54-114.83,50.28-170.61-8.26-40.88-37.39-83.42-88.29-92.19C343,65.31,289.35,114.71,231,105.44s-130.81,5.12-170.37,43.95S3.2,266.57,23.13,332.06c11.37,37.35,36,71.39,70.81,94.82,19.16,12.88,41,18.81,63.61,26.57Z" style="fill:#fff;opacity:0.8"></path></g><g id="freepik--Graphics--inject-318"><path d="M87.9,118.29c0-13.63-9.94-27-22.21-27s-22.21,13.34-22.21,27c0,9.85,5.18,17.16,12.68,20.46h0s6.29,2.63,5.69,10.87c-.44,6.09-1.16,12.23-1.5,15a1.37,1.37,0,0,0,1.37,1.54h7.57a1.37,1.37,0,0,0,1.37-1.54c-.35-2.79-1.06-8.93-1.5-15s3-9.19,4.71-10.32C82.08,136.31,87.9,128.72,87.9,118.29Z" style="fill:none;stroke:#263238;stroke-miterlimit:10"></path><path d="M53.72,137.48a21.69,21.69,0,0,0,2.44,1.27h0s6.29,2.63,5.69,10.87c-.44,6.09-1.16,12.23-1.5,15a1.37,1.37,0,0,0,1.37,1.54h7.57a1.37,1.37,0,0,0,1.37-1.54c-.35-2.79-1.06-8.93-1.5-15s3-9.19,4.71-10.32a22.23,22.23,0,0,0,3.81-1.82Z" style="fill:none;stroke:#263238;stroke-miterlimit:10"></path><circle cx="48" cy="153.7" r="4.84" style="fill:none;stroke:#263238;stroke-miterlimit:10"></circle><path d="M225.07,49.38c-5.62,12.43-2,28.68,9.12,33.73s25.74-3,31.36-15.41c4.06-9,2.34-17.77-3.13-23.87h0s-4.64-5-.7-12.25c2.91-5.37,6.1-10.67,7.56-13.07a1.37,1.37,0,0,0-.61-2l-3.14-1.42-.62-.28-3.14-1.42a1.37,1.37,0,0,0-1.88.84c-.84,2.68-2.71,8.57-4.82,14.3s-6.5,7.16-8.55,7.47C237.8,35.37,229.37,39.88,225.07,49.38Z" style="fill:none;stroke:#263238;stroke-miterlimit:10"></path><path d="M264.13,46a22,22,0,0,0-1.71-2.17h0s-4.64-5-.7-12.25c2.91-5.37,6.1-10.67,7.56-13.07a1.37,1.37,0,0,0-.61-2l-3.14-1.42-.62-.28-3.14-1.42a1.37,1.37,0,0,0-1.88.84c-.84,2.68-2.71,8.57-4.82,14.3s-6.5,7.16-8.55,7.47a21.22,21.22,0,0,0-4.22.09Z" style="fill:none;stroke:#263238;stroke-miterlimit:10"></path><path d="M305.13,427.62c-11.62-7.14-28.19-5.65-34.61,4.8s-.27,25.91,11.35,33c8.39,5.16,17.33,4.57,24.07-.09h0s5.54-4,12.24.84c5,3.56,9.82,7.39,12,9.14a1.38,1.38,0,0,0,2-.36l1.8-2.93.36-.58,1.8-2.93a1.39,1.39,0,0,0-.6-2c-2.56-1.17-8.16-3.77-13.58-6.58s-6.28-7.34-6.33-9.42C317.43,442,314,433.08,305.13,427.62Z" style="fill:none;stroke:#263238;stroke-miterlimit:10"></path><path d="M303.57,466.79a21.84,21.84,0,0,0,2.37-1.42h0s5.54-4,12.24.84c5,3.56,9.82,7.39,12,9.14a1.38,1.38,0,0,0,2-.36l1.8-2.93.36-.58,1.8-2.93a1.39,1.39,0,0,0-.6-2c-2.56-1.17-8.16-3.77-13.58-6.58s-6.28-7.34-6.33-9.42a22.19,22.19,0,0,0,.44-4.2Z" style="fill:none;stroke:#263238;stroke-miterlimit:10"></path><path d="M455,378.91c12-6.45,19.05-21.53,13.25-32.33s-22.27-13.26-34.28-6.8c-8.67,4.66-12.65,12.69-12,20.85h0s.66,6.78-6.88,10.15c-5.57,2.5-11.32,4.77-13.94,5.79a1.38,1.38,0,0,0-.71,1.94l1.63,3,.32.6,1.63,3a1.38,1.38,0,0,0,2,.47c2.29-1.62,7.36-5.16,12.52-8.43s9.5-1.74,11.32-.74C436.33,382.31,445.76,383.85,455,378.91Z" style="fill:none;stroke:#263238;stroke-miterlimit:10"></path><path d="M421.87,357.88a23,23,0,0,0,0,2.75h0s.66,6.78-6.88,10.15c-5.57,2.5-11.32,4.77-13.94,5.79a1.38,1.38,0,0,0-.71,1.94l1.63,3,.32.6,1.63,3a1.38,1.38,0,0,0,2,.47c2.29-1.62,7.36-5.16,12.52-8.43s9.5-1.74,11.32-.74a22,22,0,0,0,3.41,2.49Z" style="fill:none;stroke:#263238;stroke-miterlimit:10"></path><path d="M397.17,421.32a4.84,4.84,0,1,0-4.84,4.85A4.84,4.84,0,0,0,397.17,421.32Z" style="fill:none;stroke:#263238;stroke-miterlimit:10"></path><circle cx="470.68" cy="180.94" r="4.84" style="fill:none;stroke:#263238;stroke-miterlimit:10"></circle><circle cx="328.73" cy="52.23" r="4.84" style="fill:none;stroke:#263238;stroke-miterlimit:10"></circle><circle cx="114.05" cy="57.58" r="4.84" style="fill:none;stroke:#263238;stroke-miterlimit:10"></circle><path d="M42.44,408.36a4.84,4.84,0,1,0-4.84,4.84A4.84,4.84,0,0,0,42.44,408.36Z" style="fill:none;stroke:#263238;stroke-miterlimit:10"></path></g><g id="freepik--character-2--inject-318"><path d="M400,24.6s4.95-8.49,13.19-7.54,10.84,6.83,13.2,13-1.41,11.54-2.59,14.84-.95,4.48.94,5a4,4,0,0,0,3.3-.71s-4,4.72-7.31,5.66-8.48,3.3-11.07-.71-3.54-10.37-5.66-17.2A37.64,37.64,0,0,0,399,26.25Z" style="fill:#263238;stroke:#263238;stroke-linecap:round;stroke-linejoin:round"></path><path d="M415.26,52.4a7.57,7.57,0,0,1,5.42,6.37c.95,5.42,1.42,24.5,1.42,24.5s5.65,8.49,11.31,16.26,6.6,7.07,6.6,7.07h10.37s6.59,4.24,7.06,5,.24,1.18-1.17,1.18-4.25-.47-5.89-.47a33.94,33.94,0,0,0-4.95.7s6.12,1,6.12,2.12-.7,1-2.35,1.18-4.24.71-5.66.24-5.89-6.6-5.89-6.6-16.49-12.49-19.56-15.79-5.18-6.12-5.65-8.25a51,51,0,0,1-.71-5.89s.71-8.72-1.65-14.61-5.18-11.31-2.59-13.9S415.26,52.4,415.26,52.4Z" style="fill:#fff;stroke:#263238;stroke-linecap:round;stroke-linejoin:round"></path><path d="M420.68,58.77a7.57,7.57,0,0,0-5.42-6.37s-5.18-3.53-7.77-.94.23,8,2.59,13.9S411.73,80,411.73,80V80a16,16,0,0,0,10.14-3.93C421.64,70.1,421.25,62,420.68,58.77Z" style="fill:#FF81AE;stroke:#263238;stroke-linecap:round;stroke-linejoin:round"></path><path d="M301.21,178.24s-8.48,4.24-12.49,8.95S284,195.67,285,197.56s5.66,2.59,8.25.71,4.71-7.31,6.36-8.72,4.48-7.31,5.19-9.19S301.21,178.24,301.21,178.24Z" style="fill:#FF81AE;stroke:#263238;stroke-linecap:round;stroke-linejoin:round"></path><path d="M416.44,215.94a44.68,44.68,0,0,0,6.84,7.54c3.3,2.59,5.18,8,4.24,9.9s-6.36,3.06-9.9.47-3.3-8-5.18-10.13-4-2.12-3.77-5.19a13.74,13.74,0,0,1,1.41-5.18A6.76,6.76,0,0,0,416.44,215.94Z" style="fill:#FF81AE;stroke:#263238;stroke-linecap:round;stroke-linejoin:round"></path><path d="M413.69,51.14a17.33,17.33,0,0,0-3.61-1.09c-4.48-.95-13.67-.24-17.67.47s-10.14,2.59-10.14,2.59S363.66,62.77,362,67s1.65,22.15,2.83,27.81a49.13,49.13,0,0,1,1.17,6.83s-7.77,9.19-9.66,12.73-9.42,16.49-12.49,24.27-4.94,14.84-5.65,16-5.89.47-10.37,1.18a25.56,25.56,0,0,0-14.14,6.83,230,230,0,0,0-14.84,17.91c-.71,1.18,1.41,2.83,3.06,2.6s19.09-7.78,25.45-10.84,16.26-4.25,21.44-8,21.92-23.8,24.75-26.15a8.39,8.39,0,0,1,7.77-2.12c2.83.47,10.84,7.07,15.08,13s12.26,21.2,12.26,21.2-2.36,6.84-1.89,11.55,1.65,18.62,1.89,22.86,1.41,11.55,2.35,13,4.48,2.12,5.42,0,1.18-19.09,2.59-23.09,4.72-21,4.72-25.69-2.83-24.27-2.83-25a237,237,0,0,0-7.07-23.56,198.08,198.08,0,0,0-8.25-18.62l-2.12-4.71s7.78-10.37,8.72-12.25a13.22,13.22,0,0,0,1.18-3.3s-.19-8.72.62-12" style="fill:#fff;stroke:#263238;stroke-linecap:round;stroke-linejoin:round"></path><path d="M413.85,120.27a193.37,193.37,0,0,0-8-18.06c-2.11,2-8.49,6.13-24.55,4.86a91.68,91.68,0,0,1-17.49-2.8c-2.44,3-6.24,7.78-7.49,10.11-1.33,2.5-5.51,9.74-8.92,16.52A33.21,33.21,0,0,0,366,146.31c3.55-4,6.49-7.26,7.54-8.13a8.39,8.39,0,0,1,7.77-2.12c1.88.31,6.05,3.33,9.88,7.05,1.85-3.45,6.58-10.71,14.86-13.89a34.38,34.38,0,0,1,10-2.49C415.33,124.46,414.58,122.24,413.85,120.27Z" style="fill:#263238;stroke:#263238;stroke-linecap:round;stroke-linejoin:round"></path><path d="M416.71,53.54c-1.45-2-3.61-2.86-6.63-3.49-4.48-.95-13.67-.24-17.67.47s-10.14,2.59-10.14,2.59S363.66,62.77,362,67s1.65,22.15,2.83,27.81a49.13,49.13,0,0,1,1.17,6.83s-3.68,4.35-6.59,8.22c2.47,3,8.87,8,24.5,8.51,12,.38,19.52-6,24-12-1.34-2.84-2.29-4.69-2.29-4.69l-2.12-4.71s6.09-5.56,7.44-7.18c2.5-3,2.46-8.37,2.46-8.37s-.24-10.84.94-13" style="fill:#FF81AE;stroke:#263238;stroke-linecap:round;stroke-linejoin:round"></path><path d="M380.86,57.12a13.41,13.41,0,0,0-1.41,8.24c.7,4.72,4,13.2,4,13.2s6.36-5.42,8.25-7.07a34.31,34.31,0,0,1,4.24-3.06l10.84,2.12s-1.65-7.31-3.53-11.08-9.66-7.07-13.44-7.07S380.86,57.12,380.86,57.12Z" style="fill:#263238;stroke:#263238;stroke-linecap:round;stroke-linejoin:round"></path><path d="M391,69.84s1.89,3.54,3.3,6.36a25.33,25.33,0,0,0,2.36,4s2.12-12,2.12-13.9V64.42Z" style="fill:#fff;stroke:#263238;stroke-linecap:round;stroke-linejoin:round"></path><path d="M379.21,49.81s.71,9.66,1.65,11.78,6.36,8.25,8,9a4.8,4.8,0,0,0,4.72-.71c1.17-.94,6.12-5.65,7.77-7.54s2.36-6.6,2.36-6.6,3.06-1.18,4-3.3,3.41-6.34.41-7.88-4.88-.6-4.88-.6,2.35-4.24-1.42-5.18S384.16,39,381.33,43,379.21,49.81,379.21,49.81Z" style="fill:#fff;stroke:#263238;stroke-linecap:round;stroke-linejoin:round"></path><path d="M388.64,55.7s-1.18,4.71-1.18,5.42,1.88,2.83,3.3.94" style="fill:none;stroke:#263238;stroke-linecap:round;stroke-linejoin:round"></path><path d="M389.58,64.42A5.12,5.12,0,0,0,395,63" style="fill:none;stroke:#263238;stroke-linecap:round;stroke-linejoin:round"></path><path d="M395.94,55.94c0,.78-.37,1.41-.82,1.41s-.83-.63-.83-1.41.37-1.42.83-1.42S395.94,55.16,395.94,55.94Z" style="fill:#263238"></path><path d="M385.46,54.76c0,.78-.37,1.41-.83,1.41s-.82-.63-.82-1.41.37-1.41.82-1.41S385.46,54,385.46,54.76Z" style="fill:#263238"></path><path d="M378,37a32.71,32.71,0,0,0-1.08,7.18,15.47,15.47,0,0,0,1.8,6.47s7.9,2.87,12.93,2.87a25.37,25.37,0,0,0,8.62-1.44l1.08-7.18,1.43,3.59a7.39,7.39,0,0,1,2.52-2.87,15.67,15.67,0,0,1,2.87-1.08s1.44-10.06-1.79-16.17-14-8.26-21.92-4A12.39,12.39,0,0,0,378,37Z" style="fill:#263238;stroke:#263238;stroke-linecap:round;stroke-linejoin:round"></path><path d="M367.66,62.3s-7.06,2.36-10.36,7.78-9,19.32-9.67,21-7.77,21.44-7.77,21.44,9.66,8.49,15.55,13.43,16.26,12,16.26,12-.47,7.78.24,9a9.94,9.94,0,0,0,3.06,2.59c.71.47,3.53,0,3.53,0s1.65,2.12,2.12.94,1.42-7.3.24-9.9-6.13-6.83-6.13-6.83L354,109.19l13.66-23.8" style="fill:#FF81AE;stroke:#263238;stroke-linecap:round;stroke-linejoin:round"></path><path d="M371.91,146.9a9.94,9.94,0,0,0,3.06,2.59c.71.47,3.53,0,3.53,0s1.65,2.12,2.12.94,1.42-7.3.24-9.9-6.13-6.83-6.13-6.83L354,109.19l6.8-11.85A27.48,27.48,0,0,1,348,90.26c-.15.36-.27.63-.34.79-.7,1.65-7.77,21.44-7.77,21.44s9.66,8.49,15.55,13.43,16.26,12,16.26,12S371.2,145.72,371.91,146.9Z" style="fill:#fff;stroke:#263238;stroke-linecap:round;stroke-linejoin:round"></path><path d="M403.48,96.94s-5.92,6.16-9.53,7.55" style="fill:none;stroke:#263238;stroke-linecap:round;stroke-linejoin:round"></path><ellipse cx="390.57" cy="153.72" rx="8.01" ry="12.52" transform="translate(-23.24 223.97) rotate(-31.12)" style="fill:#FF81AE;stroke:#263238;stroke-linecap:round;stroke-linejoin:round"></ellipse><path d="M385.5,142.42c-3.92,1-5.49,6-3.49,11.81a18.82,18.82,0,0,0,2.22,4.44Z" style="fill:#fff;stroke:#263238;stroke-linecap:round;stroke-linejoin:round"></path></g><g id="freepik--Table--inject-318"><polygon points="454.4 210.2 450.07 213.41 450.07 296.66 454.4 293.45 454.4 210.2" style="fill:#263238;stroke:#263238;stroke-linecap:round;stroke-linejoin:round"></polygon><polygon points="445.74 210.31 445.74 293.56 449.93 296.72 449.93 213.47 445.74 210.31" style="fill:#fff;stroke:#263238;stroke-linecap:round;stroke-linejoin:round"></polygon><polygon points="370.85 307.16 370.85 312.43 449.65 250.8 449.65 245.52 370.85 307.16" style="fill:#263238;stroke:#263238;stroke-linecap:round;stroke-linejoin:round"></polygon><polygon points="445.72 243.61 370.85 302.15 370.85 306.98 449.65 245.35 449.65 244.94 445.72 243.61" style="fill:#fff;stroke:#263238;stroke-linecap:round;stroke-linejoin:round"></polygon><polygon points="329.4 307.7 325.07 310.91 325.07 394.16 329.4 390.95 329.4 307.7" style="fill:#263238;stroke:#263238;stroke-linecap:round;stroke-linejoin:round"></polygon><polygon points="320.74 307.81 320.74 391.06 324.93 394.22 324.93 310.96 320.74 307.81" style="fill:#fff;stroke:#263238;stroke-linecap:round;stroke-linejoin:round"></polygon><polygon points="226.51 416.72 226.51 422 324.65 346.76 324.65 341.47 226.51 416.72" style="fill:#263238;stroke:#263238;stroke-linecap:round;stroke-linejoin:round"></polygon><polygon points="320.72 339.56 226.51 411.7 226.51 416.55 324.65 341.3 324.65 340.89 320.72 339.56" style="fill:#fff;stroke:#263238;stroke-linecap:round;stroke-linejoin:round"></polygon><polygon points="372.9 271.2 368.57 274.41 368.57 357.66 372.9 354.45 372.9 271.2" style="fill:#263238;stroke:#263238;stroke-linecap:round;stroke-linejoin:round"></polygon><polygon points="364.24 271.31 364.24 354.56 368.43 357.72 368.43 274.46 364.24 271.31" style="fill:#fff;stroke:#263238;stroke-linecap:round;stroke-linejoin:round"></polygon><polygon points="226.9 379.2 222.57 382.41 222.57 465.66 226.9 462.45 226.9 379.2" style="fill:#263238;stroke:#263238;stroke-linecap:round;stroke-linejoin:round"></polygon><polygon points="218.24 379.31 218.24 462.56 222.43 465.72 222.43 382.46 218.24 379.31" style="fill:#fff;stroke:#263238;stroke-linecap:round;stroke-linejoin:round"></polygon><polygon points="76.95 269.37 72.62 272.58 72.62 355.83 76.95 352.62 76.95 269.37" style="fill:#263238;stroke:#263238;stroke-linecap:round;stroke-linejoin:round"></polygon><polygon points="68.29 269.48 68.29 352.73 72.48 355.88 72.48 272.63 68.29 269.48" style="fill:#fff;stroke:#263238;stroke-linecap:round;stroke-linejoin:round"></polygon><polygon points="291.57 116.22 458.57 204.22 222.57 379.22 64.57 260.22 291.57 116.22" style="fill:#fff;stroke:#263238;stroke-linecap:round;stroke-linejoin:round"></polygon><polygon points="355.33 156.54 290.2 122.22 73.56 259.65 145.02 313.47 355.33 156.54" style="fill:#FF81AE;stroke:#263238;stroke-linecap:round;stroke-miterlimit:10"></polygon><polygon points="360.23 159.12 149.19 316.61 222.49 373.22 447.72 206.2 360.23 159.12" style="fill:#FF81AE;stroke:#263238;stroke-linecap:round;stroke-miterlimit:10"></polygon><polygon points="343.86 263.38 179.78 163.12 179.78 186.91 343.86 290.44 343.86 263.38" style="fill:none;stroke:#263238;stroke-linecap:round;stroke-miterlimit:10"></polygon><line x1="343.86" y1="289.66" x2="343.86" y2="263.37" style="fill:#fff;stroke:#263238;stroke-linecap:round;stroke-miterlimit:10;stroke-width:3px"></line><line x1="179.78" y1="163.12" x2="179.78" y2="186.91" style="fill:#fff;stroke:#263238;stroke-linecap:round;stroke-miterlimit:10;stroke-width:3px"></line><line x1="180.65" y1="167.65" x2="342.63" y2="267.94" style="fill:none;stroke:#263238;stroke-linecap:round;stroke-miterlimit:10"></line><line x1="180.65" y1="172.82" x2="342.63" y2="273.11" style="fill:none;stroke:#263238;stroke-linecap:round;stroke-miterlimit:10"></line><line x1="180.65" y1="177.99" x2="342.63" y2="278.28" style="fill:none;stroke:#263238;stroke-linecap:round;stroke-miterlimit:10"></line><line x1="180.65" y1="183.17" x2="342.63" y2="283.46" style="fill:none;stroke:#263238;stroke-linecap:round;stroke-miterlimit:10"></line><line x1="183.84" y1="166.05" x2="183.84" y2="189.53" style="fill:none;stroke:#263238;stroke-linecap:round;stroke-miterlimit:10"></line><line x1="186.89" y1="167.91" x2="186.89" y2="191.46" style="fill:none;stroke:#263238;stroke-linecap:round;stroke-miterlimit:10"></line><line x1="189.94" y1="169.77" x2="189.94" y2="193.39" style="fill:none;stroke:#263238;stroke-linecap:round;stroke-miterlimit:10"></line><line x1="192.99" y1="171.63" x2="192.99" y2="195.32" style="fill:none;stroke:#263238;stroke-linecap:round;stroke-miterlimit:10"></line><line x1="196.04" y1="173.48" x2="196.04" y2="197.24" style="fill:none;stroke:#263238;stroke-linecap:round;stroke-miterlimit:10"></line><line x1="199.09" y1="175.34" x2="199.09" y2="199.17" style="fill:none;stroke:#263238;stroke-linecap:round;stroke-miterlimit:10"></line><line x1="202.14" y1="177.2" x2="202.14" y2="201.1" style="fill:none;stroke:#263238;stroke-linecap:round;stroke-miterlimit:10"></line><line x1="205.19" y1="179.05" x2="205.19" y2="203.03" style="fill:none;stroke:#263238;stroke-linecap:round;stroke-miterlimit:10"></line><line x1="208.25" y1="180.91" x2="208.25" y2="204.95" style="fill:none;stroke:#263238;stroke-linecap:round;stroke-miterlimit:10"></line><line x1="211.3" y1="182.77" x2="211.3" y2="206.88" style="fill:none;stroke:#263238;stroke-linecap:round;stroke-miterlimit:10"></line><line x1="214.35" y1="184.63" x2="214.35" y2="208.81" style="fill:none;stroke:#263238;stroke-linecap:round;stroke-miterlimit:10"></line><line x1="217.4" y1="186.48" x2="217.4" y2="210.74" style="fill:none;stroke:#263238;stroke-linecap:round;stroke-miterlimit:10"></line><line x1="220.45" y1="188.34" x2="220.45" y2="212.66" style="fill:none;stroke:#263238;stroke-linecap:round;stroke-miterlimit:10"></line><line x1="223.5" y1="190.2" x2="223.5" y2="214.59" style="fill:none;stroke:#263238;stroke-linecap:round;stroke-miterlimit:10"></line><line x1="226.55" y1="192.05" x2="226.55" y2="216.52" style="fill:none;stroke:#263238;stroke-linecap:round;stroke-miterlimit:10"></line><line x1="229.6" y1="193.91" x2="229.6" y2="218.45" style="fill:none;stroke:#263238;stroke-linecap:round;stroke-miterlimit:10"></line><line x1="232.65" y1="195.77" x2="232.65" y2="220.37" style="fill:none;stroke:#263238;stroke-linecap:round;stroke-miterlimit:10"></line><line x1="235.71" y1="197.63" x2="235.71" y2="222.3" style="fill:none;stroke:#263238;stroke-linecap:round;stroke-miterlimit:10"></line><line x1="238.76" y1="199.48" x2="238.76" y2="224.23" style="fill:none;stroke:#263238;stroke-linecap:round;stroke-miterlimit:10"></line><line x1="241.81" y1="201.34" x2="241.81" y2="226.16" style="fill:none;stroke:#263238;stroke-linecap:round;stroke-miterlimit:10"></line><line x1="244.86" y1="203.2" x2="244.86" y2="228.08" style="fill:none;stroke:#263238;stroke-linecap:round;stroke-miterlimit:10"></line><line x1="247.91" y1="205.06" x2="247.91" y2="230.01" style="fill:none;stroke:#263238;stroke-linecap:round;stroke-miterlimit:10"></line><line x1="250.96" y1="206.91" x2="250.96" y2="231.94" style="fill:none;stroke:#263238;stroke-linecap:round;stroke-miterlimit:10"></line><line x1="254.01" y1="208.77" x2="254.01" y2="233.87" style="fill:none;stroke:#263238;stroke-linecap:round;stroke-miterlimit:10"></line><line x1="257.06" y1="210.63" x2="257.06" y2="235.79" style="fill:none;stroke:#263238;stroke-linecap:round;stroke-miterlimit:10"></line><line x1="260.12" y1="212.48" x2="260.12" y2="237.72" style="fill:none;stroke:#263238;stroke-linecap:round;stroke-miterlimit:10"></line><line x1="263.17" y1="214.34" x2="263.17" y2="239.65" style="fill:none;stroke:#263238;stroke-linecap:round;stroke-miterlimit:10"></line><line x1="266.22" y1="216.2" x2="266.22" y2="241.58" style="fill:none;stroke:#263238;stroke-linecap:round;stroke-miterlimit:10"></line><line x1="269.27" y1="218.06" x2="269.27" y2="243.5" style="fill:none;stroke:#263238;stroke-linecap:round;stroke-miterlimit:10"></line><line x1="272.32" y1="219.91" x2="272.32" y2="245.43" style="fill:none;stroke:#263238;stroke-linecap:round;stroke-miterlimit:10"></line><line x1="275.37" y1="221.77" x2="275.37" y2="247.36" style="fill:none;stroke:#263238;stroke-linecap:round;stroke-miterlimit:10"></line><line x1="278.42" y1="223.63" x2="278.42" y2="249.29" style="fill:none;stroke:#263238;stroke-linecap:round;stroke-miterlimit:10"></line><line x1="281.47" y1="225.48" x2="281.47" y2="251.21" style="fill:none;stroke:#263238;stroke-linecap:round;stroke-miterlimit:10"></line><line x1="284.52" y1="227.34" x2="284.52" y2="253.14" style="fill:none;stroke:#263238;stroke-linecap:round;stroke-miterlimit:10"></line><line x1="287.58" y1="229.2" x2="287.58" y2="255.07" style="fill:none;stroke:#263238;stroke-linecap:round;stroke-miterlimit:10"></line><line x1="290.63" y1="231.06" x2="290.63" y2="257" style="fill:none;stroke:#263238;stroke-linecap:round;stroke-miterlimit:10"></line><line x1="293.68" y1="232.91" x2="293.68" y2="258.92" style="fill:none;stroke:#263238;stroke-linecap:round;stroke-miterlimit:10"></line><line x1="296.73" y1="234.77" x2="296.73" y2="260.85" style="fill:none;stroke:#263238;stroke-linecap:round;stroke-miterlimit:10"></line><line x1="299.78" y1="236.63" x2="299.78" y2="262.78" style="fill:none;stroke:#263238;stroke-linecap:round;stroke-miterlimit:10"></line><line x1="302.83" y1="238.49" x2="302.83" y2="264.71" style="fill:none;stroke:#263238;stroke-linecap:round;stroke-miterlimit:10"></line><line x1="305.88" y1="240.34" x2="305.88" y2="266.63" style="fill:none;stroke:#263238;stroke-linecap:round;stroke-miterlimit:10"></line><line x1="308.93" y1="242.2" x2="308.93" y2="268.56" style="fill:none;stroke:#263238;stroke-linecap:round;stroke-miterlimit:10"></line><line x1="311.99" y1="244.06" x2="311.99" y2="270.49" style="fill:none;stroke:#263238;stroke-linecap:round;stroke-miterlimit:10"></line><line x1="315.04" y1="245.91" x2="315.04" y2="272.42" style="fill:none;stroke:#263238;stroke-linecap:round;stroke-miterlimit:10"></line><line x1="318.09" y1="247.77" x2="318.09" y2="274.34" style="fill:none;stroke:#263238;stroke-linecap:round;stroke-miterlimit:10"></line><line x1="321.14" y1="249.63" x2="321.14" y2="276.27" style="fill:none;stroke:#263238;stroke-linecap:round;stroke-miterlimit:10"></line><line x1="324.19" y1="251.49" x2="324.19" y2="278.2" style="fill:none;stroke:#263238;stroke-linecap:round;stroke-miterlimit:10"></line><line x1="327.24" y1="253.34" x2="327.24" y2="280.12" style="fill:none;stroke:#263238;stroke-linecap:round;stroke-miterlimit:10"></line><line x1="330.29" y1="255.2" x2="330.29" y2="282.05" style="fill:none;stroke:#263238;stroke-linecap:round;stroke-miterlimit:10"></line><line x1="333.34" y1="257.06" x2="333.34" y2="283.98" style="fill:none;stroke:#263238;stroke-linecap:round;stroke-miterlimit:10"></line><line x1="336.39" y1="258.92" x2="336.39" y2="285.91" style="fill:none;stroke:#263238;stroke-linecap:round;stroke-miterlimit:10"></line><line x1="339.45" y1="260.77" x2="339.45" y2="287.83" style="fill:none;stroke:#263238;stroke-linecap:round;stroke-miterlimit:10"></line><polygon points="458.71 218.13 222.57 393.05 222.57 379.22 458.71 204.29 458.71 218.13" style="fill:#263238;stroke:#263238;stroke-linecap:round;stroke-linejoin:round"></polygon><polygon points="64.56 274.15 222.34 393.13 222.34 379.3 64.56 260.32 64.56 274.15" style="fill:#fff;stroke:#263238;stroke-linecap:round;stroke-linejoin:round"></polygon><path d="M247.26,131.78a3.93,3.93,0,1,1-3.93-3.93A3.93,3.93,0,0,1,247.26,131.78Z" style="fill:#fff;stroke:#263238;stroke-linecap:round;stroke-linejoin:round"></path></g><g id="freepik--character-1--inject-318"><path d="M155.48,231.78l-9.61-11.94s-6.7-4.07-8.15-4.65S136,211.4,136,210.24s.87-6.7,2-7.28,2.91.29,5.24,1.45,5.24,9,5.24,9.9,12.23,9.9,22.42,15.73,14.85,12.52,14.85,16-1.16,4.66-3.78,5.53-35.24-.58-35.24-.58l3.5-18.05Z" style="fill:#fff;stroke:#263238;stroke-linecap:round;stroke-linejoin:round"></path><path d="M176.59,238.19a30.29,30.29,0,0,1,3.35,1.16" style="fill:none;stroke:#263238;stroke-linecap:round;stroke-linejoin:round"></path><path d="M154,233s11.17,2.2,19.17,4.29" style="fill:none;stroke:#263238;stroke-linecap:round;stroke-linejoin:round"></path><path d="M78.31,269.35l-1.75,11.94L55.31,270.51a32.26,32.26,0,0,0,2.33-5.24c.29-1.46-1.46-3.78-2.33-4.66s-3.21-1.45-3.21-.29v1.17l-4.36-1.75c-1.46-.58-4.08.87-3.21,2.91s0,3.2,0,5.53,0,3.5,2,5.24a24.43,24.43,0,0,0,6.12,3.21s15.14,15.43,19.51,18.92S80.35,302,83,299.92,91.71,274,91.71,274Z" style="fill:#fff;stroke:#263238;stroke-linecap:round;stroke-linejoin:round"></path><line x1="76.56" y1="281.29" x2="75.98" y2="290.02" style="fill:#fff;stroke:#263238;stroke-linecap:round;stroke-linejoin:round"></line><path d="M72.78,430.67s-.18.35-.46.94c-.88,1.8-2.81,5.81-3.91,8.67a4.69,4.69,0,0,0,5,6.4c3.2-.29,4.08-6.11,6.7-8.44s4.37-2,5.24-6.12-.87-7.86-5.82-6.4A11,11,0,0,0,72.78,430.67Z" style="fill:#263238;stroke:#263238;stroke-linecap:round;stroke-linejoin:round"></path><path d="M128.69,456s-5.83,15.72-5,16.31,10.77,2.91,14.27,3.49,11.64,1.75,13.39,0-5.24-5.53-8.73-8.44-7.58-9.61-7.58-9.61Z" style="fill:#263238;stroke:#263238;stroke-linecap:round;stroke-linejoin:round"></path><path d="M102.19,237.61s-20.67,9.32-21,10.77-5,22.71-5,22.71l16,6.12s5.24,11.06,5.82,13.39-3.49,7.28-4.36,11.07-7,13.39-7.28,27.37,6.4,49.21,6.4,49.21-1.75.29-5,5.24-5.24,9.32-7.57,17.77-9.32,33.19-9,34.07,1.46,2.62,4.08,1.16S94,408.25,99.57,399.8s10.19-18.64,10.77-21.84,5.24-27.08,5.24-27.08l5.83,3.49s15.43,44.56,16,45.72-4.95,11.94-5.53,17.47-3.78,40.19-4.08,42.23.88,4.07,2.33,4.07a6.23,6.23,0,0,0,6.12-4.37c1.16-3.78,16.31-39.89,18.05-48s1.75-17.76,2-19.51.29-43.1-3.49-57.07-6.7-28.25-6.7-28.25,1.16-16.89-.87-29.41S142.37,253,142.37,253l7.87-.87,5.24-20.39s-10.19-3.49-17.76-3.2-21.55,4.66-23.59,5.24S102.19,237.61,102.19,237.61Z" style="fill:#fff;stroke:#263238;stroke-linecap:round;stroke-linejoin:round"></path><path d="M152.86,334.87c-2.32-8.54-4.3-17.18-5.5-22.62-6.26,2.53-18.65,6.32-35.56,5.73-13.69-.48-19.63-3.22-22.2-5.61A53.26,53.26,0,0,0,86.47,329c-.14,6.45,1.21,17.41,2.71,27.35,10.09,6.4,20.52,3.88,24.88,2.34.86-4.43,1.52-7.85,1.52-7.85l5.83,3.49s2.36,6.82,5.27,15.19c10.86,8.09,23.22,4.14,29.54,1.13C155.83,357.77,154.89,342.37,152.86,334.87Z" style="fill:#263238;stroke:#263238;stroke-linecap:round;stroke-linejoin:round"></path><path d="M147.32,211.4l-1.74-7.57-7-2-.58,8.45a3.41,3.41,0,0,0,1.74-.59c.88-.58,1.17-2.33,1.17-2.33s.29,5,2.62,6.7" style="fill:#fff;stroke:#263238;stroke-linecap:round;stroke-linejoin:round"></path><ellipse cx="144.85" cy="187.23" rx="13.54" ry="16.02" style="fill:#FF81AE;stroke:#263238;stroke-linecap:round;stroke-linejoin:round"></ellipse><path d="M132.32,193.29c2,5.84,6.86,10,12.53,10a11.59,11.59,0,0,0,5.21-1.24Z" style="fill:#fff;stroke:#263238;stroke-linecap:round;stroke-linejoin:round"></path><path d="M137.72,228.58c-7.58.29-21.55,4.66-23.59,5.24s-11.94,3.79-11.94,3.79-20.67,9.32-21,10.77-5,22.71-5,22.71l16,6.12s5.24,11.06,5.82,13.39-3.49,7.28-4.36,11.07c-.53,2.26-2.91,6.61-4.82,12.71,3.39,4,11.17,10.46,26.36,11.46,13.48.88,25.86-3.62,33.5-7.29-1.61-6.95-2.63-11.93-2.63-11.93s1.16-16.89-.87-29.41S142.37,253,142.37,253l7.87-.87,5.24-20.39S145.29,228.29,137.72,228.58Z" style="fill:#FF81AE;stroke:#263238;stroke-linecap:round;stroke-linejoin:round"></path><path d="M142.37,253s-2.33,7.86-5,11.94" style="fill:none;stroke:#263238;stroke-linecap:round;stroke-linejoin:round"></path><line x1="84.46" y1="258.12" x2="82.97" y2="254.5" style="fill:none;stroke:#263238;stroke-linecap:round;stroke-linejoin:round"></line><line x1="92.29" y1="277.21" x2="85.94" y2="261.74" style="fill:none;stroke:#263238;stroke-linecap:round;stroke-linejoin:round"></line><path d="M145,275.16c-.85-5.55-1.48-10.8-1.9-14.79-3.87,8.58-16.63,33-46.2,60.39a37.85,37.85,0,0,0,8.64,3.49C125.92,304.82,138.14,287.07,145,275.16Z" style="fill:#263238"></path><path d="M145.88,281.77c-6.27,10.75-17.12,26.43-34.63,43.64,1.29.18,2.62.33,4,.43a56.05,56.05,0,0,0,7.45,0,225.86,225.86,0,0,0,23.75-29.1A142.53,142.53,0,0,0,145.88,281.77Z" style="fill:#263238"></path><path d="M122.86,184.9s-12.81-5.24-21.25-5.24S84.43,189,84.43,189l4.66-1.17s-7.28,5.54-9,9.9a57.2,57.2,0,0,0-2.62,11.36l3.49-1.46s-1.45,8.16,0,14.27,6.7,12.52,6.7,12.52l1.75-3.49s5.82,7,7.86,9,7.86,4.66,7.86,4.66l9.32-6.41V242c0-.88,4.08-4.08,11.07-11.36s9.6-22.42,8.73-31.16S122.86,184.9,122.86,184.9Z" style="fill:#263238;stroke:#263238;stroke-linecap:round;stroke-linejoin:round"></path></g></svg>